<svg width="508" height="508" xmlns="http://www.w3.org/2000/svg">

 <g>
  <title>Layer 1</title>
  <ellipse stroke-width="0" stroke="#000" ry="253.99999" rx="253.99999" id="svg_22" cy="253.99997" cx="253.99998" fill="#ffffff"/>
  <g>
   <g>
    <path stroke="#fff" fill="#000" d="m254.99998,99.80098c-82.821,0 -150.201,67.38 -150.201,150.2c0,82.821 67.38,150.201 150.201,150.201s150.2,-67.38 150.2,-150.201c0,-82.82 -67.379,-150.2 -150.2,-150.2zm0,199.834c-27.368,0 -49.634,-22.266 -49.634,-49.634c0,-27.367 22.266,-49.633 49.634,-49.633c27.368,0 49.633,22.266 49.633,49.633c0,27.368 -22.265,49.634 -49.633,49.634zm41.637,-105.414c-9.091,-6.803 -19.897,-11.428 -31.637,-13.124l0,-60.916c28.394,2.167 54.267,13.486 74.677,31l-43.04,43.04zm-51.637,-13.124c-11.74,1.696 -22.546,6.32 -31.637,13.124l-43.04,-43.04c20.41,-17.514 46.283,-28.833 74.678,-31l0,60.916l-0.001,0zm-45.78,27.265c-6.804,9.091 -11.429,19.898 -13.125,31.639l-60.915,0c2.167,-28.395 13.486,-54.268 31.001,-74.678l43.039,43.039zm-13.125,51.639c1.696,11.74 6.321,22.546 13.124,31.638l-43.039,43.04c-17.514,-20.41 -28.833,-46.283 -31,-74.678l60.915,0zm27.266,45.78c9.091,6.804 19.898,11.429 31.639,13.125l0,60.916c-28.395,-2.167 -54.268,-13.486 -74.678,-31l43.039,-43.041zm51.639,13.125c11.741,-1.696 22.547,-6.321 31.638,-13.125l43.039,43.04c-20.41,17.514 -46.283,28.834 -74.678,31l0,-60.915l0.001,0zm45.781,-27.268c6.803,-9.091 11.427,-19.897 13.124,-31.637l60.916,0c-2.167,28.395 -13.486,54.268 -31,74.677l-43.04,-43.04zm13.123,-51.637c-1.696,-11.741 -6.321,-22.547 -13.125,-31.638l43.04,-43.04c17.514,20.41 28.834,46.283 31.001,74.678l-60.916,0z"/>
    <path stroke="#fff" fill="#000" d="m254.99998,232.46498c-9.67,0 -17.537,7.867 -17.537,17.537s7.867,17.536 17.537,17.536s17.537,-7.866 17.537,-17.536s-7.867,-17.537 -17.537,-17.537z"/>
    <path stroke="#fff" fill="#000" d="m484.99998,260.00098l0,-20l-41.352,0c-2.336,-44.568 -20.193,-85.088 -48.251,-116.257l29.306,-29.306l-14.142,-14.143l-29.307,29.306c-31.167,-28.055 -71.687,-45.912 -116.254,-48.247l0,-41.353l-20,0l0,41.353c-44.567,2.336 -85.087,20.193 -116.256,48.249l-29.307,-29.308l-14.142,14.143l29.307,29.308c-28.057,31.168 -45.914,71.688 -48.25,116.256l-41.352,0l0,20l41.352,0c2.336,44.567 20.193,85.088 48.25,116.256l-29.306,29.305l14.142,14.143l29.307,-29.306c31.169,28.057 71.689,45.914 116.257,48.25l-0.002,41.349l20,0l0.001,-41.35c44.567,-2.336 85.088,-20.193 116.256,-48.25l29.306,29.307l14.143,-14.143l-29.306,-29.307c28.056,-31.168 45.913,-71.688 48.248,-116.255l41.352,0zm-230,158.913c-93.139,0 -168.913,-75.774 -168.913,-168.913s75.774,-168.912 168.913,-168.912c93.139,0 168.913,75.773 168.913,168.912s-75.774,168.913 -168.913,168.913z"/>
   </g>
   <g/>
   <g/>
   <g/>
   <g/>
   <g/>
   <g/>
   <g/>
   <g/>
   <g/>
   <g/>
   <g/>
   <g/>
   <g/>
   <g/>
   <g/>
  </g>
 </g>
</svg>